Coordinates
version=1
nRows=6
nColumns=63
inDegrees=yes

Units are S.I. units (second, meters, Newtons, ...)
If the header above contains a line with 'inDegrees', this indicates whether rotational values are in degrees (yes) or radians (no).

endheader
time	pelvis_tilt	pelvis_list	pelvis_rotation	pelvis_tx	pelvis_ty	pelvis_tz	hip_flexion_r	hip_adduction_r	hip_rotation_r	knee_angle_r	knee_angle_r_beta	ankle_angle_r	subtalar_angle_r	mtp_angle_r	hip_flexion_l	hip_adduction_l	hip_rotation_l	knee_angle_l	knee_angle_l_beta	ankle_angle_l	subtalar_angle_l	mtp_angle_l	L5_S1_Flex_Ext	L5_S1_Lat_Bending	L5_S1_axial_rotation	L4_L5_Flex_Ext	L4_L5_Lat_Bending	L4_L5_axial_rotation	L3_L4_Flex_Ext	L3_L4_Lat_Bending	L3_L4_axial_rotation	L2_L3_Flex_Ext	L2_L3_Lat_Bending	L2_L3_axial_rotation	L1_L2_Flex_Ext	L1_L2_Lat_Bending	L1_L2_axial_rotation	L1_T12_Flex_Ext	L1_T12_Lat_Bending	L1_T12_axial_rotation	Abs_r3	Abs_r2	Abs_r1	Abs_t1	Abs_t2	neck_flexion	neck_bending	neck_rotation	arm_flex_r	arm_add_r	arm_rot_r	elbow_flex_r	pro_sup_r	wrist_flex_r	wrist_dev_r	arm_flex_l	arm_add_l	arm_rot_l	elbow_flex_l	pro_sup_l	wrist_flex_l	wrist_dev_l
      0.00000000	     -1.82057355	     -3.56014927	     92.54565789	      0.17280381	      0.88665789	      0.58440061	     11.64504793	     -4.41346798	    -14.46957185	     11.78407078	      0.20567083	     33.82257998	     10.23913002	      0.00000000	      9.79392960	      3.04296414	     17.18645693	      4.54203669	      0.07927349	     23.13588826	    -12.73778921	      0.00000000	      0.08895019	     -0.08585361	     -0.37017489	      0.16518940	     -0.11418531	     -0.39331082	      0.14613627	     -0.20874448	     -0.39331082	      0.10166117	     -0.20874448	     -0.32390303	      0.08259915	     -0.17507269	     -0.30076710	      0.05082614	     -0.13298725	     -0.27763117	      0.63536233	     -0.97119326	     -2.05880170	      0.00000000	      0.00000000	     20.41015066	     -0.71611750	      2.41416410	     12.40303050	     -6.99908665	     37.81726070	     45.02087533	     62.40882669	      7.22383738	      8.36398032	     15.49230279	     -7.01649367	     49.09020110	     42.53749265	     47.37902046	      1.98504890	     -5.56337362
      0.01666667	     -2.53434666	     -3.68589218	     92.24536339	      0.17248277	      0.88551223	      0.58549743	     12.13943650	     -5.36670413	    -14.26705619	     13.23964634	      0.23107542	     33.24417624	     10.18755137	      0.00000000	     10.14495851	      3.81603089	     16.42041323	      4.97522633	      0.08683408	     23.08780709	    -13.25792118	      0.00000000	      0.09457967	     -0.14939000	     -0.31913814	      0.17564391	     -0.19868870	     -0.33908428	      0.15538495	     -0.36322685	     -0.33908428	      0.10809511	     -0.36322685	     -0.27924587	      0.08782668	     -0.30463609	     -0.25929974	      0.05404283	     -0.23140511	     -0.23935361	      0.67557315	     -1.68992957	     -1.77495061	      0.00000000	      0.00000000	     20.65332836	     -0.90291552	      2.90755505	     12.46935143	     -7.20227991	     37.84875190	     45.82340247	     63.62739735	      6.04739424	      7.46924782	     15.81369727	     -7.96172975	     50.06339313	     43.81556084	     48.94522605	      1.43986006	     -4.46962620
      0.03333333	     -3.16545490	     -3.79549095	     91.47305455	      0.17329402	      0.88475939	      0.58591723	     12.58540859	     -5.96732488	    -13.05755281	     14.18877041	      0.24764076	     32.81864715	      9.53112127	      0.00000000	     10.33444637	      4.33746777	     14.95409833	      5.11846773	      0.08933411	     23.37637641	    -13.04524018	      0.00000000	      0.10551927	     -0.21950194	     -0.17823631	      0.19595984	     -0.29193758	     -0.18937608	      0.17335761	     -0.53369701	     -0.18937608	      0.12059797	     -0.53369701	     -0.15595677	      0.09798519	     -0.44760835	     -0.14481700	      0.06029371	     -0.34000850	     -0.13367723	      0.75371359	     -2.48304981	     -0.99129689	      0.00000000	      0.00000000	     20.78728283	     -0.73049561	      2.82669257	     12.00521773	     -6.94558740	     36.60543640	     46.44087158	     68.06110009	      4.88810068	      6.83655748	     15.43568500	     -8.43984125	     48.25499354	     45.04014295	     57.65850503	      0.13891270	     -2.40515688
      0.05000000	     -3.29837611	     -3.80010378	     91.51077046	      0.17274102	      0.88458286	      0.58623871	     12.54735359	     -6.20197079	    -12.95220963	     14.45069329	      0.25221218	     32.48439548	      9.61670091	      0.00000000	     10.36470432	      4.51000574	     14.85027909	      5.08037221	      0.08866922	     23.69338258	    -13.19155593	      0.00000000	      0.10729174	     -0.22365430	     -0.18563035	      0.19925150	     -0.29746023	     -0.19723225	      0.17626961	     -0.54379308	     -0.19723225	      0.12262373	     -0.54379308	     -0.16242656	      0.09963111	     -0.45607586	     -0.15082466	      0.06130650	     -0.34644052	     -0.13922276	      0.76637420	     -2.53002223	     -1.03242031	      0.00000000	      0.00000000	     20.76955645	     -0.79038943	      2.89376519	     11.93024143	     -7.06581890	     36.66408425	     46.46979578	     68.14714482	      4.76523845	      6.84708086	     15.49075486	     -8.52063244	     48.46726189	     45.26505880	     57.87009337	      0.16388414	     -2.26675588
      0.06666667	     -4.05100045	     -3.99035277	     90.56326810	      0.17447537	      0.88391589	      0.58747820	     13.42768587	     -6.87459460	    -11.70809779	     15.54348221	      0.27128494	     33.04266383	      9.33668677	      0.00000000	     10.75780917	      5.07969597	     13.39124741	      5.26956526	      0.09197126	     24.18947051	    -12.62537970	      0.00000000	      0.11000655	     -0.31841582	      0.00844371	      0.20429316	     -0.42349304	      0.00897144	      0.18072976	     -0.77419622	      0.00897144	      0.12572648	     -0.77419622	      0.00738825	      0.10215208	     -0.64931354	      0.00686051	      0.06285774	     -0.49322610	      0.00633278	      0.78576576	     -3.60198344	      0.04696138	      0.00000000	      0.00000000	     21.08221944	     -0.61680442	      2.87240211	     11.67325423	     -6.84319207	     36.52901316	     47.04486586	     70.69022235	      2.35721244	      7.04044948	     15.64408014	     -9.05595510	     46.85233323	     46.41758930	     70.71636915	     -0.47388829	      0.69593561
      0.08333333	     -4.33459347	     -4.07074878	     90.16503079	      0.17519477	      0.88376936	      0.58824169	     13.81089007	     -7.12274752	    -11.12951065	     15.96997283	      0.27872861	     33.46946263	      9.43371663	      0.00000000	     10.93650345	      5.27048193	     12.61095311	      5.27879955	      0.09213243	     24.74756883	    -12.02605341	      0.00000000	      0.10961383	     -0.35437477	      0.08973947	      0.20356384	     -0.47131844	      0.09534818	      0.18008456	     -0.86162681	      0.09534818	      0.12527764	     -0.86162681	      0.07852203	      0.10178740	     -0.72264103	      0.07291332	      0.06263334	     -0.54892652	      0.06730460	      0.78296061	     -4.00875826	      0.49910399	      0.00000000	      0.00000000	     21.19051074	     -0.56290327	      2.75046042	     11.62416405	     -6.84877637	     37.13931944	     47.14101017	     71.01400495	      0.74466750	      7.23036287	     15.67185340	     -9.11193778	     45.81453024	     46.85845204	     76.31096039	     -0.03078903	      2.18569803
